<?xml version="1.0" standalone="no"?>
<!DOCTYPE svg PUBLIC "-//W3C//DTD SVG 1.1//EN" "http://www.w3.org/Graphics/SVG/1.1/DTD/svg11.dtd" >
<svg xmlns="http://www.w3.org/2000/svg">
<metadata>Generated by IcoMoon</metadata>
<defs>
<font id="skycar" horiz-adv-x="1024">
<font-face units-per-em="1024" ascent="960" descent="-64" />
<missing-glyph horiz-adv-x="1024" />
<glyph unicode="&#x20;" horiz-adv-x="512" d="" />
<glyph unicode="&#xe900;" glyph-name="add-1" horiz-adv-x="724" d="M85.142 485.253h553.668v-75.839h-553.668v75.839zM324.058 724.169h75.839v-553.668h-75.839v553.668z" />
<glyph unicode="&#xe901;" glyph-name="add-2" horiz-adv-x="1727" d="M1147.713 567.893c-15.623 36.889-37.921 69.991-66.344 98.416-28.422 28.422-61.526 50.79-98.414 66.342-38.197 16.172-78.801 24.363-120.575 24.363-41.776 0-82.38-8.191-120.575-24.363-36.889-15.621-69.991-37.92-98.416-66.342-28.422-28.426-50.79-61.527-66.342-98.416-16.172-38.195-24.363-78.799-24.363-120.575s8.191-82.379 24.363-120.573c15.621-36.889 37.92-69.991 66.342-98.415 28.426-28.422 61.527-50.79 98.416-66.345 38.195-16.172 78.799-24.363 120.575-24.363 34.48 0 68.27 5.645 100.614 16.723 31.246 10.737 60.427 26.357 86.783 46.386 7.917 6.058 15.626 12.526 22.919 19.269 8.394 7.778 8.878 20.787 1.101 29.181-7.774 8.398-20.782 8.876-29.182 1.102-6.33-5.851-13.004-11.495-19.885-16.722-47.006-35.791-103.165-54.716-162.419-54.716-148.035 0-268.403 120.436-268.403 268.402s120.437 268.403 268.403 268.403c147.966 0 268.403-120.437 268.403-268.403 0-32.482-5.715-64.139-17-94.284-3.992-10.665 1.375-22.571 12.044-26.565 10.667-3.99 22.576 1.378 26.567 12.044 13.005 34.756 19.613 71.3 19.613 108.737 0.138 41.913-8.053 82.516-24.225 120.712v0zM862.382 272.446c11.422 0 20.646 9.223 20.646 20.645v137.366h129.799c11.422 0 20.645 9.223 20.645 20.649 0 11.424-9.223 20.645-20.645 20.645h-129.799v129.796c0 11.427-9.223 20.649-20.646 20.649s-20.649-9.222-20.649-20.649v-129.796h-129.796c-11.423 0-20.645-9.221-20.645-20.645 0-11.426 9.222-20.649 20.645-20.649h129.796v-137.436c0-11.353 9.225-20.575 20.649-20.575v0z" />
<glyph unicode="&#xe902;" glyph-name="agree" horiz-adv-x="724" d="M360.526 759.63c-172.406 0-312.164-139.754-312.164-312.148 0-172.402 139.758-312.158 312.164-312.158 172.394 0 312.156 139.757 312.156 312.158 0 172.394-139.761 312.148-312.156 312.148v0zM562.489 557.666l0.034-0.034-252.591-249.727h-2.167l-149.261 145.675c0 0-0.342 0.404-0.482 0.584-2.76 3.526-4.272 7.99-4.272 12.813 0 11.478 9.327 20.784 20.832 20.784 5.062 0 9.7-1.799 13.308-4.795 0 0 1.691-1.55 2.165-2.076l118.435-118.433 224.003 224.004c3.818 4.257 9.357 6.937 15.532 6.937 11.5 0 20.828-9.306 20.828-20.784 0-5.87-2.442-11.168-6.364-14.947v0z" />
<glyph unicode="&#xe903;" glyph-name="appointment" horiz-adv-x="724" d="M623.503 344.854c0 33.919-27.497 61.418-61.415 61.418s-61.416-27.498-61.416-61.418c0-33.918 27.497-61.415 61.416-61.415s61.415 27.498 61.415 61.415v0zM222.8 344.854c0 33.919-27.493 61.418-61.412 61.418s-61.418-27.498-61.418-61.418c0-33.918 27.5-61.415 61.418-61.415s61.412 27.498 61.412 61.415v0zM660.233 340.841c-5.579 97.808-98.145 97.808-98.145 97.725-97.599-8.033-96.328-97.807-96.328-97.807h-206.778c-6 97.807-96.706 97.807-96.706 97.807-99.966-7.862-97.768-97.807-97.768-97.807-24.133 5.495-27.007 28.024-27.007 28.024v97.725c10.694 29.29 46.579 39.603 46.579 39.603h33.39c18.009 42.058 63.782 92.485 63.782 92.485 9.892 11.622 16.741 11.157 16.741 11.157l71.981 0.338c0 0-49.072-32.083-52.497-32.334-13.778-0.297-22.105-13.905-22.105-13.905l-34.238-51.358 132.807-0.339 0.804 66.363c-17.877 0.887-89.398-1.016-89.398-1.016l63.148 33.054 124.564-1.185-11.539-26.882-48.44-1.016 1.522-69.572 141.301 0.929c-59.978 75.743-67.078 68.939-67.078 68.939l-29.628-0.339 12.341 28.153h35.211c46.746-24.138 102.668-103.896 102.668-103.896 43.621 2.789 94.089-6.172 94.089-6.172 52.793-9.594 60.823-36.435 60.823-36.435v-91.212c-1.524-21.94-24.094-31.028-24.094-31.028v0z" />
<glyph unicode="&#xe904;" glyph-name="arrow-right" horiz-adv-x="724" d="M513.244 622.075l153.63-153.635c3.487-2.737 6.229-6.292 7.787-10.524 0.062-0.309 0.124-0.499 0.124-0.685 1.121-2.49 1.496-5.23 1.62-7.972 0-0.376 0.309-0.808 0.309-1.183 0-0.746-0.494-1.37-0.494-2.114-0.128-1.62-0.499-3.24-1.059-4.86-0.499-1.929-1.311-3.674-2.181-5.417-0.561-1.059-1.306-2.057-2.057-3.049-0.685-0.875-0.993-1.997-1.929-2.804l-155.75-155.813c-10.025-10.091-26.34-10.091-36.242 0-10.025 9.964-10.025 26.28 0 36.366l112.033 112.095h-249.847c-14.324 0-26.094 11.644-26.094 25.971 0 14.324 11.707 25.971 26.094 25.971h249.035l-111.221 111.345c-10.025 9.902-10.025 26.282 0 36.309 9.902 9.963 26.218 9.963 36.242-0.001v0zM244.093 448.265c0-14.323-11.646-25.969-25.971-25.969-14.259 0-25.909 11.582-25.909 25.969 0 14.382 11.645 25.967 25.909 25.967 14.387 0.061 25.971-11.585 25.971-25.967v0zM123.026 448.265c0-14.323-11.583-25.969-25.965-25.969-14.264 0-25.909 11.582-25.909 25.969 0 14.382 11.645 25.967 25.909 25.967 14.382 0.061 25.965-11.585 25.965-25.967v0z" />
<glyph unicode="&#xe905;" glyph-name="backpack" horiz-adv-x="724" d="M646.306 224.524l-0.052 142.656c0 44.226-47.535 47.446-47.535 47.446v120.878c0.354 96.374-48.943 136.572-97.156 140.513-10.818 67.548-69.491 119.327-140.041 119.327-69.839 0-128.048-50.742-139.703-117.3-111.965-24.932-96.919-144.309-96.919-144.309l0.113-118.703c-52.933-0.828-49.658-51.653-49.658-51.653v-138.116c-0.040-43.153 49.658-46.621 49.658-46.621 0.013-84.519 94.028-78.212 94.028-78.212h285.568c99.778-0.109 93.855 77.13 93.855 77.13 53.852 10.618 47.842 46.964 47.842 46.964v0zM361.522 742.252c40.118 0 74.1-26.762 85.041-63.37h-170.082c10.947 36.607 44.92 63.37 85.041 63.37v0zM498.448 295.877h-14.411v-22.612c0-12.564-10.187-22.752-22.755-22.752-12.571 0-22.757 10.184-22.757 22.752v22.612h-215.405c-12.571 0-22.757 10.188-22.757 22.754 0 12.572 10.187 22.76 22.757 22.76h275.327c12.563 0 22.755-10.188 22.755-22.76 0.001-12.566-10.187-22.754-22.754-22.754v0z" />
<glyph unicode="&#xe906;" glyph-name="bag" horiz-adv-x="724" d="M268.716 540.314c-9.887 0-18.431-5.64-18.431-12.623v-198.067c0-7.152 8.284-12.623 18.431-12.623 9.906 0 18.448 5.64 18.448 12.623v198.067c0.001 7.148-8.17 12.623-18.448 12.623v0zM455.073 540.314c-9.903 0-18.448-5.64-18.448-12.623v-198.067c0-7.152 8.303-12.623 18.448-12.623 9.889 0 18.43 5.64 18.43 12.623v198.067c0 7.148-8.283 12.623-18.43 12.623v0zM492.179 670.762c-0.506 38.26-16.087 55.667-53.789 55.667l-151.003 0.187c-59.554 0-55.851-55.854-55.851-55.854v-37.232h37.234v37.232c0 23.179 14.522 18.621 37.237 18.621h111.702c22.713 0 37.234 4.559 37.234-18.621v-37.232h37.235v37.232zM566.646 633.529h-409.58c-37.942 0-74.785-20.925-74.785-59.538v-297.744c0-38.609 30.795-69.72 68.754-69.796 9.774-22.841 32.15-38.609 58.272-38.609 26.192 0 48.498 15.859 58.196 38.609h188.183c9.794-22.841 32.171-38.609 58.271-38.609 26.214 0 48.498 15.859 58.196 38.609 37.942 0 68.753 31.277 68.753 69.796v297.839c0.004 38.592-36.224 59.444-74.261 59.444v0zM603.824 279.692c0-21.371-17.741-38.78-39.152-38.78h-21.334c0-19.624-16.122-35.578-36.324-35.578-20.030 0-36.318 15.954-36.318 35.578h-217.711c0-19.624-16.122-35.578-36.32-35.578-20.034 0-36.324 15.954-36.324 35.578h-21.242c-21.653 0-39.17 17.162-39.17 38.78v278.103c0 21.371 17.853 38.76 39.17 38.76h405.573c21.652 0 39.152-17.146 39.152-38.76v-278.103z" />
<glyph unicode="&#xe907;" glyph-name="balance" horiz-adv-x="724" d="M286.771 590.522h158.217c49.223 0 86.491 106.18 86.491 106.18 0 31.644-3.516 55.551-57.66 57.66-54.145 1.407-67.505-37.971-106.18-37.971-40.081 0-59.771 30.941-109.697 37.971-49.223 7.033-57.66-26.017-57.66-57.66 0 0 37.269-106.18 86.491-106.18zM454.128 558.177h-167.357c-184.936 0-229.94-362.138-229.94-362.138 0-47.817 38.675-95.632 86.491-95.632h454.957c47.817 0 86.486 47.817 86.486 95.632-0.702-0.703-46.403 362.138-230.637 362.138zM472.41 279.717c11.251 0 20.393-9.142 20.393-20.393s-9.142-20.393-20.393-20.393h-81.569v-52.738c0-11.251-9.142-20.393-20.393-20.393s-20.393 9.142-20.393 20.393v52.738h-81.567c-11.251 0-20.393 9.142-20.393 20.393s9.142 20.393 20.393 20.393h82.272v25.315h-82.272c-11.251 0-20.393 9.142-20.393 20.393s9.142 20.393 20.393 20.393h55.551l-56.957 101.258c-5.625 9.845-2.109 21.799 7.031 27.424 9.845 5.625 21.799 2.109 27.424-7.033l68.911-120.948h3.516l68.911 120.948c5.625 9.845 17.579 12.658 27.424 7.033s12.657-17.579 7.735-27.424l-56.957-101.258h52.035c11.251 0 20.393-9.142 20.393-20.393s-9.142-20.393-20.393-20.393h-82.272v-25.315h81.569z" />
<glyph unicode="&#xe908;" glyph-name="banner" horiz-adv-x="1727" d="M997.032 674.837h-148.957v17.256c0 13.152-10.661 23.814-23.814 23.814s-23.814-10.662-23.814-23.814v-17.256h-148.955c-13.152 0-23.814-10.662-23.814-23.814v-204.402c0-13.153 10.662-23.815 23.814-23.815h148.956v-218.899c0-13.151 10.662-23.814 23.814-23.814s23.814 10.662 23.814 23.814v218.9h148.957c13.152 0 23.814 10.662 23.814 23.815v204.401c-0.001 13.153-10.663 23.814-23.815 23.814z" />
<glyph unicode="&#xe909;" glyph-name="body" horiz-adv-x="724" d="M653.476 569.567l-7.137 111.487c-0.663 10.342-8.919 18.561-19.244 19.182l-113.731 6.873c-10.965 0.382-21.047-7.936-21.727-19.241-0.681-11.326 7.935-21.047 19.241-21.728l67.28-4.075-115.002-114.989c-39.382 32.589-89.596 51.531-142.259 51.531-33.352 0-65.625-7.336-95.932-21.829-53.66-25.656-94.108-70.674-113.894-126.758-19.783-56.084-16.556-116.52 9.103-170.176 36.801-76.912 115.676-126.602 200.983-126.602 33.373 0 65.646 7.338 95.952 21.828 53.639 25.656 94.090 70.677 113.894 126.763 19.783 56.083 16.556 116.517-9.102 170.176-8.009 16.74-18.016 32.188-29.648 46.119l115.958 115.94 4.292-67.108c0.701-10.885 9.721-19.224 20.463-19.224 0.44 0 0.883 0.021 1.323 0.039 11.325 0.722 19.904 10.486 19.185 21.79v0zM492.278 315.505c-16.137-45.741-49.132-82.463-92.888-103.389-24.732-11.83-51.052-17.82-78.232-17.82-69.574 0-133.938 40.527-163.943 103.268-20.929 43.756-23.572 93.047-7.439 138.787 16.137 45.741 49.132 82.462 92.907 103.388 24.735 11.826 51.055 17.82 78.215 17.82 69.594 0 133.955-40.531 163.962-103.27 20.929-43.758 23.572-93.045 7.418-138.785v0z" />
<glyph unicode="&#xe90a;" glyph-name="briefcase" horiz-adv-x="724" d="M622.636 634.593h-102.153c-19.435 72.808-84.517 123.592-158.598 123.592-74.085 0-139.162-50.777-158.596-123.592h-102.693c-28.566 0-51.943-23.868-51.943-53.047v-27.8c0-14.973 4.305-18.786 20.339-18.786h91.212c3.554 32.407 28.383 57.614 58.439 57.614s54.886-25.204 58.439-57.608h171.6c3.437 31.872 27.14 56.641 55.826 56.641 28.69 0 52.389-24.773 55.832-56.645h96.874c13.513 0 17.365 3.739 17.365 16.954v29.632c-0.001 29.177-23.376 53.045-51.944 53.045v0zM258.813 634.593c17.311 42.088 58.18 70.125 103.076 70.125 44.894 0 85.76-28.038 103.068-70.125h-206.144zM658.585 474.614h-98.584c-4.401-30.641-27.577-54.104-55.494-54.104-27.914 0-51.091 23.463-55.488 54.1h-172.284c-4.545-31.169-28.823-55.066-58.087-55.066-29.267 0-53.549 23.896-58.091 55.070h-92.022c-15.804 0-19.881-3.97-19.881-19.881v-265.106c0-29.183 23.376-53.051 51.943-53.051h522.041c28.566 0 51.946 23.871 51.946 53.051v269.084c-0.004 11.932-5.003 15.902-15.997 15.902v0zM246.022 485.128v41.859c0 18.724-12.321 34.048-27.38 34.048-15.058 0-27.383-15.324-27.383-34.048v-41.862c0-18.725 12.324-34.048 27.383-34.048 15.059 0.002 27.38 15.327 27.38 34.051v0zM530.242 485.128v41.859c0 18.724-11.582 34.048-25.736 34.048-14.152 0-25.73-15.324-25.73-34.048v-41.862c0-18.725 11.579-34.048 25.73-34.048 14.154 0.002 25.736 15.327 25.736 34.051v0z" />
<glyph unicode="&#xe90b;" glyph-name="bulb" horiz-adv-x="1727" d="M862.466 792.064c-135.329 0-244.991-109.663-244.991-244.926 0-89.1 47.574-167.115 118.802-209.986 4.030-21.905 13.573-41.795 27.212-58.325h197.958c13.638 16.464 23.182 36.42 27.212 58.325 71.162 42.806 118.737 120.817 118.737 209.986 0 135.263-109.663 244.926-244.929 244.926v0zM1025.751 512.129c-15.523 0-23.316 7.863-23.316 11.693 0 86.343-65.315 151.659-139.969 151.659-15.519 0-23.316 7.863-23.316 11.693 0 15.522 7.863 23.315 23.316 23.315 94.006 0 174.977-80.967 174.977-186.666 0-3.898-7.863-11.693-11.693-11.693v0zM757.51 220.502c0 12.903 10.416 23.316 23.25 23.316h163.417c12.834 0 23.251-10.347 23.251-23.316 0-12.9-10.416-23.316-23.251-23.316h-163.417c-12.834 0.001-23.25 10.348-23.25 23.316v0zM956.542 162.178c-17.203-34.539-52.884-58.325-94.075-58.325-41.188 0-76.869 23.786-94.071 58.325h188.146z" />
<glyph unicode="&#xe90c;" glyph-name="bus-1" horiz-adv-x="724" d="M641.295 117.843v-54.739c0-15.104-12.505-27.367-27.97-27.367h-83.953c-15.47 0-28.008 12.258-28.008 27.367v54.739h-279.885v-54.739c0-15.104-12.529-27.367-27.995-27.367h-83.968c-15.451 0-27.995 12.258-27.995 27.367v54.739c-30.916 0-55.978 24.505-55.978 54.739v574.707c0 30.231 53.057 54.739 83.973 54.739 0 0 112.733 54.719 251.896 54.719 140.711 0 279.884-54.719 279.884-54.719 30.936 0 55.983-24.512 55.983-54.739v-574.707c0.019-30.213-25.049-54.739-55.978-54.739h-0.005zM151.506 199.961c38.647 0 69.972 30.622 69.972 68.417 0 37.787-31.325 68.409-69.972 68.409-38.651 0-69.971-30.622-69.971-68.409 0-37.796 31.32-68.417 69.971-68.417v0zM473.387 802.041h-223.924c-15.447 0-27.99-12.263-27.99-27.367 0-15.122 12.543-27.367 27.99-27.367h223.924c15.465 0 27.975 12.245 27.975 27.367 0 15.086-12.51 27.367-27.975 27.367v0zM641.295 637.811c0 15.122-12.505 27.372-27.97 27.372h-503.795c-15.451 0-27.995-12.245-27.995-27.372v-164.192c0-15.104 12.529-27.372 27.995-27.372h503.795c15.465 0 27.97 12.268 27.97 27.372v164.192zM571.329 336.789c-38.646 0-69.966-30.622-69.966-68.409 0-37.796 31.32-68.417 69.966-68.417 38.651 0 69.971 30.622 69.971 68.417 0 37.787-31.32 68.409-69.971 68.409v0z" />
<glyph unicode="&#xe90d;" glyph-name="bus-2" horiz-adv-x="724" d="M610.033 326.701h-15.751c-3.504 39.699-35.351 70.905-74.588 70.905-39.216 0-71.064-31.206-74.566-70.905h-182.121c0.298 2.36 0.757 4.672 0.757 7.1 0 35.234-30.314 63.805-67.745 63.805-37.406 0-67.741-28.571-67.741-63.805 0-2.428 0.482-4.739 0.757-7.1h-15.8c-16.644 0-30.104 12.707-30.104 28.368v241.025c0 15.681 13.461 28.364 30.104 28.364h449.109l77.793-119.874v-149.516c-0.001-15.661-13.485-28.368-30.104-28.368v0zM263.761 567.729c0 7.829-6.731 14.193-15.041 14.193h-105.379c-8.334 0-15.064-6.364-15.064-14.193v-85.051c0-7.831 6.73-14.196 15.064-14.196h105.379c8.31 0 15.041 6.364 15.041 14.196v85.051zM429.375 567.729c0 7.829-6.754 14.193-15.064 14.193h-105.379c-8.31 0-15.041-6.364-15.041-14.193v-85.051c0-7.831 6.731-14.196 15.041-14.196h105.379c8.31 0 15.064 6.364 15.064 14.196v85.051zM579.926 525.214c-3.297 5.795-4.235 8.312-5.791 10.876l-24.338 45.833h-75.275c-8.31 0-15.041-6.364-15.041-14.193v-85.051c0-7.831 6.731-14.196 15.041-14.196h90.339c8.312 0 15.064 6.364 15.064 14.196v42.534zM196.018 369.238c29.097 0 52.702-22.205 52.702-49.61s-23.605-49.634-52.702-49.634-52.677 22.228-52.677 49.634 23.581 49.61 52.677 49.61v0zM527.225 369.238c29.12 0 52.702-22.205 52.702-49.61s-23.582-49.634-52.702-49.634c-29.097 0-52.702 22.228-52.702 49.634s23.605 49.61 52.702 49.61v0z" />
<glyph unicode="&#xe90e;" glyph-name="call" horiz-adv-x="724" d="M459.406 354.435c-7.975-7.977-51.836-39.874-63.798-83.736-47.848 27.911-143.545 95.698-191.394 207.343 39.874 15.949 67.785 51.837 71.773 59.811 0 0-59.812 103.672-159.495 159.495 0 0-55.824-39.873-59.811-99.684 0 0-19.937-103.672 167.47-299.054 159.494-163.479 239.241-175.443 291.078-167.468 7.975 0 15.949 3.987 23.924 3.987 47.848 15.949 75.76 59.811 75.76 59.811-47.848 95.697-155.508 159.495-155.508 159.495v0zM531.179 505.955c-3.987 0 0 0 0 0-3.987 0-3.987 0 0 0-3.987 0-3.987 0 0 0-7.975-11.961 7.974-19.937 15.948-7.974 15.949 39.873 3.987 83.736-23.924 111.648-27.912 27.911-75.76 43.86-111.646 23.924-11.962-3.987 0-19.937 7.975-15.949 3.986 0 3.986 0 7.974 3.987 7.975 0 11.962 3.987 19.938 3.987 23.925 0 43.861-11.962 63.798-27.912 15.949-15.949 27.911-39.874 27.911-63.798 0-7.975 0-15.949-3.987-19.937s-3.987-3.988-3.987-7.975v0zM587.001 681.399c0 3.988 0 3.988 0 0-51.837 51.837-119.622 83.734-191.394 83.734-31.9 0-63.798-3.987-91.71-19.937-11.961-3.987-3.987-19.937 7.974-15.949h3.988c7.975 3.987 11.961 3.987 15.949 7.975 19.937 3.987 39.873 7.974 59.811 7.974 67.785 0 131.584-27.912 175.444-75.76 47.848-47.848 75.76-107.659 75.76-175.444 0-19.938-3.987-39.873-7.975-59.811 0-7.975-3.987-11.961-3.987-15.948v-3.987c-3.987-11.962 11.962-19.939 15.949-7.975 11.961 27.911 19.937 63.798 19.937 95.697 3.987 63.798-27.911 127.597-79.747 179.431v0z" />
<glyph unicode="&#xe90f;" glyph-name="card" horiz-adv-x="724" d="M119.251 337.486c0-33.301 26.997-60.351 60.352-60.351h362.266c33.303 0 60.352 26.994 60.352 60.351v160.952h-482.97v-160.952zM427.472 336.459l13.739 41.278h80.505c11.098 0 17.297-8.407 13.739-19.129l-13.739-41.277h-80.505c-11.098 0-17.297 8.407-13.739 19.128zM541.869 619.193h-362.266c-33.354 0-60.404-26.995-60.352-60.352v-20.152h482.97v20.152c0 33.303-26.997 60.352-60.352 60.352z" />
<glyph unicode="&#xe910;" glyph-name="cars" horiz-adv-x="724" d="M209.747 530.332l60.027 76.096h115.948l-12.709 17.869h14.605c8.078 0 14.615 6.513 14.615 14.558 0 8.039-6.538 14.553-14.615 14.553h-29.221c-2.238 0-4.295-0.584-6.191-1.478 0 0-29.329 41.754-33.785 47.541-4.452 5.787-8.766 6.453-14.411 6.453h-176.574c-8.627 0-12.971 0.347-19.199-7.925-6.224-8.272-33.666-46.068-33.666-46.068-1.896 0.893-3.958 1.478-6.191 1.478h-28.227c-8.068 0-14.61-6.513-14.61-14.553 0-8.043 6.543-14.558 14.61-14.558h13.617c0 0-14.367-20.045-21.295-29.286-4.779-6.814-6.932-13.889-6.932-19.201v-129.109c0-12.943 2.988-14.957 13.608-14.957h53.436c12.282 0 14.082 6.657 14.082 15.289v39.402h33.339c-3.297 5.074-5.416 12.871-5.416 18.078 0 12.609 14.695 28.142 27.349 28.142h38.1c3.507 0 6.737-0.917 9.706-2.323v0zM114.206 559.095h-30.218c-10.762 0-20.478 9.688-20.478 20.406s9.716 21.4 20.478 21.4h30.218c10.761 0 20.477-10.68 20.477-21.4s-9.716-20.406-20.477-20.406v0zM95.039 634.706c3.634 4.993 28.085 38.608 30.408 42.961 2.323 4.356 5.392 5.557 12.946 5.557h151.35c7.825 0 10.182-1.896 14.063-7.326 3.878-5.436 22.15-35.201 26.118-40.761 3.963-5.559 1.306-8.923-4.666-8.923h-223.711c-8.295 0.001-8.281 4.311-6.508 8.491v0zM676.112 466.381c11.774 0 21.318 9.512 21.318 21.243s-9.546 21.238-21.318 21.238h-42.648c-3.26 0-6.266-0.855-9.032-2.157 0 0-49.413 62.849-54.306 69.297-4.898 6.448-9.878 8.652-19.171 8.652h-245.281c-9.293 0-14.519-1.934-19.108-7.953-4.59-6.020-54.839-69.995-54.839-69.995-2.766 1.301-5.769 2.157-9.032 2.157h-42.648c-11.773 0-21.323-9.507-21.323-21.238s9.546-21.243 21.323-21.243h21.324c0 0-16.53-21.761-25.647-33.767-9.284-12.529-11.023-20.435-11.023-34.874v-181.221c0-21.41 6.219-26.417 24.64-26.417h80.433c14.439 0 22.858 9.987 22.858 27.414v57.555h270.9v-58.053c0-18.422 6.675-26.916 24.099-26.916h79.659c18.421 0 24.169 6.999 24.169 26.417v180.228c0 11.45-3.445 24.393-11.231 34.984-8.238 11.203-25.438 34.65-25.438 34.65h21.322zM322.602 556.331h211.425c6.77 0 9.554 0.67 15.152-6.827 5.597-7.502 59.684-78.941 65.249-86.558s1.582-11.503-3.729-11.503h-359.455c-8.632 0-9.16 7.488-5.915 11.996 3.245 4.515 57.057 79.35 60.526 84.743 3.473 5.392 7.43 8.148 16.747 8.148v0zM292.632 359.498h-42.643c-15.703 0-29.424 14.672-29.424 30.317 0 15.647 13.721 30.319 29.424 30.319h42.643c15.703 0 29.429-14.672 29.429-30.319-0.005-15.645-13.726-30.317-29.429-30.317v0zM606.169 359.498h-42.638c-15.703 0-29.429 14.672-29.429 30.317 0 15.647 13.726 30.319 29.429 30.319h42.638c15.703 0 29.429-14.672 29.429-30.319 0.001-15.645-13.726-30.317-29.429-30.317v0z" />
<glyph unicode="&#xe911;" glyph-name="charge" horiz-adv-x="724" d="M594.455 670.94h-467.146c-36.667 0-66.424-29.567-66.726-66.149h600.611c-0.314 36.583-30.073 66.149-66.739 66.149v0zM60.57 571.414v-280.954c0-36.843 29.882-66.71 66.739-66.71h467.146c36.858 0 66.739 29.867 66.739 66.71v280.954h-600.624zM453.093 360.242c0-6.568-5.325-11.891-11.865-11.891h-67.937v-43.354c0-6.538-5.307-11.848-11.821-11.848h-1.147c-6.523 0-11.835 5.31-11.835 11.848v43.354h-67.936c-6.539 0-11.861 5.336-11.861 11.891v1.295c0 6.552 5.323 11.875 11.861 11.875v-0.013h67.936v23.084h-51.979c-6.539 0-11.865 5.336-11.865 11.888v1.052c0 6.564 5.326 11.888 11.865 11.888h51.297l-56.894 55.42c-2.306 2.266-3.578 5.284-3.578 8.478 0 3.206 1.287 6.224 3.592 8.478 2.266 2.237 5.296 3.466 8.519 3.466 3.221 0 6.264-1.243 8.543-3.484l53.031-52.32 52.858 52.172c2.276 2.221 5.332 3.463 8.514 3.453 3.21 0 6.226-1.216 8.492-3.453 2.281-2.206 3.574-5.247 3.574-8.422 0-3.21-1.266-6.198-3.574-8.464l-56.076-55.34h50.462c6.553 0 11.891-5.338 11.891-11.891v-1.036c0-6.566-5.338-11.888-11.891-11.888h-51.964v-23.084h67.938c6.539 0 11.857-5.323 11.857-11.878v-1.282h-0.009v0.005z" />
<glyph unicode="&#xe912;" glyph-name="circle" horiz-adv-x="724" d="M360.716 736.907c-159.751 0-289.255-129.499-289.255-289.241 0-159.748 129.503-289.247 289.255-289.247 159.743 0 289.248 129.499 289.248 289.247 0.004 159.742-129.505 289.241-289.248 289.241v0zM360.707 196.986c-138.448 0-250.683 112.234-250.683 250.683s112.234 250.683 250.683 250.683c138.449 0 250.683-112.234 250.683-250.683s-112.234-250.683-250.683-250.683v0z" />
<glyph unicode="&#xe913;" glyph-name="city" horiz-adv-x="724" d="M402.971 658.472l-36.824 45.413v76.161h-25.99v-73.974l-89.266-110.177h202.772zM599.064 226.995v273.172h-96.211v-273.172h-39.333v344.479h-220.675v-344.479h-40.54v283.027l-140.84 80.738v-412.209h-0.019v-0.021h601.157v48.465h-63.538zM81.152 359.99l-0.019 0.021h0.060v-0.021h-0.040zM267.948 353.929v-0.021l-0.019 0.021h0.019zM519.851 449.333v-0.021l-0.021 0.021h0.021zM519.832 347.608v0.021h0.021v-0.021h-0.021z" />
<glyph unicode="&#xe914;" glyph-name="clock" horiz-adv-x="1727" d="M817.143 648.437l35.407-0.381-0.382-163.324 177.418-67.767-14.464-38.064-198.312 72.761 0.334 196.775zM549.115 469.506c0-157.7 127.84-285.527 285.541-285.527s285.545 127.827 285.545 285.527c0 157.696-127.843 285.53-285.545 285.53s-285.541-127.833-285.541-285.53v0z" />
<glyph unicode="&#xe915;" glyph-name="close" horiz-adv-x="724" d="M614.031 241.318l-47.505-46.245-209.068 200.714-202.052-200.701-45.912 46.244 207.892 206.497-207.892 206.496 45.912 46.247 202.065-200.708 209.056 200.688 47.505-46.24-215.099-206.487 215.099-206.503z" />
<glyph unicode="&#xe916;" glyph-name="commet" horiz-adv-x="724" d="M622.985 721.084h-502.062c-22.458 0-39.635-17.177-39.635-38.314v-371.261c0-21.141 17.178-39.636 39.635-39.636h52.849v-132.122l184.969 130.8h264.244c22.459 0 39.637 18.499 39.637 39.636v372.583c0 21.138-17.178 38.314-39.637 38.314v0zM464.441 390.781h-264.241c-7.93 0-13.213 5.286-13.213 13.212 0 7.929 5.282 13.212 13.213 13.212h264.241c7.927 0 13.212-5.284 13.212-13.212 0-7.925-5.286-13.212-13.212-13.212v0zM543.71 483.267h-343.511c-7.93 0-13.213 5.284-13.213 13.212s5.282 13.212 13.213 13.212h343.511c7.93 0 13.212-5.286 13.212-13.212 0-7.928-5.282-13.212-13.212-13.212v0zM543.71 575.75h-343.511c-7.93 0-13.213 5.286-13.213 13.212 0 7.929 5.282 13.212 13.213 13.212h343.511c7.93 0 13.212-5.282 13.212-13.212 0-7.925-5.282-13.212-13.212-13.212v0z" />
<glyph unicode="&#xe917;" glyph-name="cooperation" horiz-adv-x="724" d="M541.778 722.97h-340.717c-67.2 0-121.681-54.483-121.681-121.686v-340.713c0-67.206 54.481-121.689 121.681-121.689h340.717c67.206 0 121.689 54.483 121.689 121.689v340.713c0 67.202-54.483 121.686-121.689 121.686v0zM484.454 374.573l-7.325-7.323-91.703 91.701c-1.882 1.924-4.461 3.008-7.152 3.006-2.627 0.005-5.147-1.025-7.019-2.868-1.807-1.88-2.818-4.39-2.813-6.999 0-2.799 1.134-5.329 2.968-7.156l91.699-91.701-18.507-18.532-91.726 91.726c-1.88 1.916-4.457 2.993-7.142 2.988-2.62 0.002-5.135-1.019-7.007-2.852-1.821-1.886-2.838-4.403-2.835-7.024-0.002-2.687 1.063-5.261 2.969-7.154l91.722-91.703-18.512-18.513-0.023 0.006-91.726 91.699c-1.88 1.919-4.454 2.999-7.139 2.997-2.621 0.002-5.139-1.023-7.007-2.858-1.807-1.879-2.818-4.388-2.815-6.999 0-2.8 1.135-5.329 2.969-7.158l91.701-91.7-11.009-11.012c-8.141-8.149-19.393-13.193-31.819-13.193-12.354 0-23.54 4.981-31.667 13.038l-139.365 139.372c-8.070 8.124-13.057 19.307-13.057 31.667 0 12.433 5.049 23.682 13.212 31.82l97.429 97.425c8.141 8.155 19.393 13.196 31.82 13.196 12.352 0 23.539-4.982 31.664-13.040l139.369-139.362c8.065-8.125 13.052-19.313 13.052-31.67 0.001-12.429-5.044-23.685-13.207-31.821v0zM557.78 454.837l-33.697-33.694-120.14 120.118 33.693 33.698c8.143 8.119 19.377 13.137 31.78 13.137 12.45 0 23.72-5.055 31.864-13.229l56.389-56.388c8.177-8.149 13.237-19.423 13.237-31.873 0-12.4-5.016-23.633-13.126-31.769v0z" />
<glyph unicode="&#xe918;" glyph-name="coupon" horiz-adv-x="724" d="M669.184 493.542c17.054 10.189 17.533 17.987 17.533 31.563v94.681c0 26.149-23.551 47.34-52.605 47.34h-526.016c-29.047 0-52.598-21.191-52.598-47.34v-94.678c0-14.147 1.093-23.579 17.536-31.567 23.948-10.037 52.591-30.32 52.591-63.123 0-42.57-29.723-56.415-51.558-63.050-15.38-8.659-18.569-22.917-18.569-31.631v-94.678c0-26.16 23.551-47.351 52.598-47.351h526.019c29.050 0 52.602 21.198 52.602 47.351v94.678c0 17.238-4.397 22.699-17.533 31.562-38.298 17.764-52.599 33.58-52.599 63.119 0.001 29.542 13.392 44.237 52.601 63.123v0zM476.312 438.306c0-4.352-3.925-7.888-8.773-7.888h-78.897v-31.562h78.897c4.848 0 8.773-3.53 8.773-7.889v-15.779c0-4.358-3.925-7.891-8.773-7.891h-78.897v-55.233c0-4.356-3.923-7.889-8.766-7.889h-17.537c-4.84 0-8.766 3.533-8.766 7.889v55.233h-78.901c-4.847 0-8.767 3.533-8.767 7.891v15.779c0 4.359 3.92 7.889 8.767 7.889h78.901v31.562h-78.901c-4.847 0-8.767 3.536-8.767 7.888v15.785c0 4.358 3.92 7.898 8.767 7.898h66.381l-72.066 69.676c-1.478 1.444-2.31 3.423-2.31 5.492 0 2.065 0.832 4.044 2.31 5.492l11.157 10.986c3.085 3.033 8.081 3.033 11.161 0l79.719-77.084 79.685 77.059c3.106 3.057 8.143 3.057 11.251 0l11.246-11.071c1.486-1.456 2.328-3.449 2.328-5.535s-0.842-4.080-2.328-5.537l-71.86-69.485h66.194c4.841 0 8.773-3.532 8.773-7.89v-15.785z" />
<glyph unicode="&#xe919;" glyph-name="double-arrow" horiz-adv-x="724" d="M451.581 607.404l22.802-97.797h-375.862v-63.944h552.923l-199.863 161.741zM298.384 238.788l-22.802 97.794h375.862v63.943h-552.923l199.863-161.737z" />
<glyph unicode="&#xe91a;" glyph-name="driver" horiz-adv-x="724" d="M360.657 213.368c-49.22 0-93.544-19.872-125.803-52.13-10.142-10.146-18.957-21.705-26.438-34.177 80.238-5.985 208.948-13.139 305.731-1.913-7.735 13.141-16.96 25.363-27.689 36.172-32.261 32.176-76.579 52.048-125.801 52.048v0zM623.070 285.537c-16.545 15.551-34.589 70.512-122.31 83.232-2.808 0.403-5.606 0.875-8.395 1.413-6.24-21.453-15.467-52.547-24.78-80.402-5.405-16.131-17.545-46.647-18.459-48.56 49.471-21.371 89.631-59.948 113.083-108.257 49.885 11.060 82.978 30.016 81.649 61.196 0 0-4.244 75.832-20.788 91.379v-0.002zM412.71 253.36c0 0.086 0 0.086 0 0 1.824 3.413 4.075 8.566 6.569 14.721 4.989 12.391 10.64 28.851 16.211 45.977 7.981 24.532 15.549 50.307 20.784 68.433-21.366 13.22-18.458 30.764-15.711 39.911 24.774 26.607 42.654 62.028 48.387 95.535 0.083 0.583 0.5 1.248 0.17 0.913 5.484 5.405 9.307 13.304 10.972 22.869 3.744 13.883 6.817 31.26 3.241 42.319 26.025 20.953 15.884 37.917 13.39 41.49 23.696 4.491 32.76 10.644 32.76 20.539 0 10.972-11.060 17.295-40.327 21.867l-2.579 8.484c37.998 10.559 61.53 25.11 61.53 41.323 0 32.095-92.874 58.118-207.452 58.118-114.579 0-207.449-26.024-207.449-58.118 0-16.213 23.527-30.764 61.528-41.323l-2.745-9.232c-26.188-4.572-36.169-10.725-36.169-21.119 0-9.232 7.898-15.13 27.772-19.539-2.996-4.823-4.576-9.897-4.576-15.048 0-8.897 4.824-17.213 13.052-24.949-7.151-0.246-3.572-9.729 2.996-20.618 0.583-8.063 2.248-16.131 3.909-22.036 1.992-11.055 5.488-18.875 10.807-24.363 0.356-0.397 0.586-0.888 0.669-1.413 5.732-37.914 24.859-74 49.634-99.776 1.831-13.051-0.913-40.244-65.603-49.639-87.72-12.72-104.515-67.682-121.059-83.229-16.547-15.547-15.881-91.047-15.881-91.047s9.811-58.952 60.28-61.779c4.16-0.248 11.141-0.832 20.455-1.579 35.918 75.912 112.911 128.461 202.462 128.461 17.879 0.083 35.256-2.161 51.971-6.153v0zM306.278 450.419c-10.14 8.484 4.409 22.953 14.552 14.551 23.866-19.952 57.539-17.544 82.814 1.579 10.561 7.984 20.784-9.812 10.393-17.711-32.759-24.774-75.911-25.026-107.759 1.581v0z" />
<glyph unicode="&#xe91b;" glyph-name="girl" horiz-adv-x="724" d="M644.502 646.946c-41.925 87.616-131.806 144.236-228.968 144.236-38.022 0-74.784-8.368-109.312-24.878-61.128-29.24-107.187-80.53-129.749-144.42-22.536-63.892-18.837-132.741 10.391-193.858 9.117-19.061 20.863-36.326 34.104-52.191l-57.253-57.246-59.399 59.403c-9.133 9.138-23.932 9.138-33.065 0-9.132-9.133-9.132-23.928 0-33.065l59.399-59.403-69.056-69.052c-9.137-9.137-9.137-23.932 0-33.067 4.378-4.391 10.329-6.859 16.532-6.85 6.203-0.009 12.152 2.458 16.532 6.85l69.057 69.056 59.414-59.411c4.566-4.565 10.549-6.85 16.533-6.85 5.983 0 11.966 2.285 16.532 6.85 9.133 9.133 9.133 23.935 0 33.068l-59.411 59.406 57.079 57.075c44.862-37.129 101.995-58.823 161.992-58.823 38 0 74.763 8.368 109.29 24.889 126.163 60.352 179.684 212.104 119.357 338.28v0zM504.956 350.852c-28.155-13.471-58.141-20.308-89.102-20.308-79.282 0-152.607 46.182-186.793 117.667-23.863 49.847-26.878 106-8.469 158.108 18.382 52.11 55.967 93.945 105.817 117.798 28.178 13.472 58.16 20.3 89.124 20.3 79.265 0 152.585-46.186 186.771-117.659 49.233-102.907 5.548-226.685-97.347-275.908v0z" />
<glyph unicode="&#xe91c;" glyph-name="heart" horiz-adv-x="724" d="M476.934 665.787c-45.708 0-88.211-44.443-116.18-77.796-27.961 33.363-70.451 77.796-116.183 77.796-82.4 0-149.432-64.666-149.432-144.149 0-47.419 24.011-80.686 43.308-107.416 56.090-77.636 197.126-174.25 203.101-178.32 5.752-3.923 12.487-5.887 19.196-5.887 6.729 0 13.448 1.964 19.193 5.887 5.979 4.071 147.030 100.684 203.101 178.32 19.31 26.731 43.327 59.997 43.327 107.416 0.002 79.482-67.032 144.149-149.431 144.149v0z" />
<glyph unicode="&#xe91d;" glyph-name="help" horiz-adv-x="724" d="M371.366 752.626c-177.283 0-322.333-145.049-322.333-322.332 0-177.28 145.050-322.33 322.333-322.33 177.279 0 322.328 145.050 322.328 322.33 0 177.282-145.050 322.332-322.328 322.332v0zM362.658 218.128c-21.172 0-38.501 17.329-38.501 38.505 0 21.172 17.329 38.5 38.501 38.5 21.176 0 38.501-17.324 38.501-38.5s-17.325-38.505-38.501-38.505v0zM498.363 478.611c-6.482-12.212-20.287-27.433-41.407-45.659-21.122-18.225-35.136-31.19-42.036-38.895-6.9-7.703-10.427-11.775-15.232-20.687-4.808-8.912-5.961-10.111-10.26-21.845-4.301-11.736-14.346-18.647-27.52-18.647-13.179 0-24.253 13.017-24.253 22.952 0 9.936-2.088 11.951 6.538 26.674 6.766 11.554 10.187 14.841 17.716 24.236 7.527 9.398 21.12 23.206 40.78 41.431 19.657 18.225 35.923 29.353 41.567 37.622 5.646 8.265 12.7 21.609 12.7 37.956s-7.867 31.322-26.758 42.971c-18.889 11.656-32.972 14.016-63.088 14.016-30.113 0-76.963-22.889-77.35-81.433-0.004-0.415-0.004-0.827-0.004-1.246 0 0.004-2.014-19.442-27.97-19.442-25.955 0-27.18 21.274-27.144 22.175 1.013 25.871 4.534 45.433 10.573 58.995 6.27 14.092 16.312 26.68 30.112 37.765 13.805 11.085 29.173 19.259 46.113 24.521s34.822 7.893 53.644 7.893c38.058 0 69.743-10.055 95.049-30.158 25.302-20.107 37.956-46.881 37.956-80.325-0.001-15.032-3.244-28.654-9.727-40.868v0z" />
<glyph unicode="&#xe91e;" glyph-name="home" horiz-adv-x="724" d="M536.010 520.3l-102.933 180.324c-12.549 20.444-34.149 32.895-57.881 32.895-23.988-0.004-45.771-12.724-57.878-33.022l-261.631-458.214c-4.587-10.187-6.605-19.642-6.605-29.303 0-37.51 30.179-67.993 67.487-67.993 16.255 0 31.65 5.827 43.759 16.227 59.082 52.563 134.672 81.973 214.797 81.973 34.177 0.034 68.137-5.381 100.607-16.043 42.291-13.904 81.225-36.494 114.506-66.227 12.55-10.376 27.592-15.923 43.424-15.923 37.319 0 67.488 30.488 67.488 67.993 0 10.733-2.479 21.142-7.177 30.533-16.372 28.751-16.372 28.751-64.153 112.436-23.882 41.847-23.882 41.847-43.799 76.724-4.761 8.341-15.386 11.241-23.729 6.481-8.343-4.762-11.242-15.388-6.481-23.73l107.501-188.317c1.841-3.737 3.053-8.828 3.053-14.132 0-18.37-14.672-33.197-32.697-33.197-7.647 0-14.873 2.666-20.761 7.517-36.641 32.714-79.634 57.527-126.297 72.881-35.976 11.818-73.612 17.825-111.479 17.789-88.744 0-172.543-32.593-237.702-90.565-5.819-4.949-13.22-7.655-20.861-7.621-18.016 0-32.693 14.827-32.693 33.197 0 4.798 0.999 9.484 2.833 13.664l260.665 456.308c5.863 9.779 16.432 15.765 27.835 15.762 11.458 0 21.918-6.027 27.94-15.833 6.451-11.319 6.451-11.319 32.806-57.471 32.468-56.884 32.468-56.884 69.841-122.363 4.766-8.348 15.391-11.246 23.738-6.482 8.338 4.761 11.242 15.391 6.477 23.733v0zM246.884 385.828c7.103-4.436 19.608-10.71 36.807-16.888 28.136-10.087 57.715-15.56 87.6-16.206 33.307-0.746 65.841 5.641 96.304 16.724 17.329 6.303 30.31 12.668 37.802 17.127 8.262 4.907 10.981 15.582 6.073 23.846-4.908 8.258-15.583 10.975-23.845 6.068-1.269-0.76-4.024-2.248-8.095-4.255-7.758-3.786-15.712-7.151-23.829-10.083-26.682-9.699-55.060-15.273-83.642-14.632-26.139 0.568-52.012 5.355-76.625 14.176-7.777 2.762-15.384 5.988-22.777 9.656-3.771 1.895-6.248 3.288-7.321 3.969-8.137 4.911-18.709 2.39-23.746-5.67-5.040-8.056-2.686-18.664 5.293-23.831v0zM634.073 144.869c-19.404 0-36.141 8.795-45.019 16.329l-1.022 0.939c-0.793 0.786-83.029 80.629-208.628 80.835h-0.581c-136.929 0-212.421-77.377-213.173-78.164l-1.177-1.132c-16.655-14.52-57.597-33.389-93.385-0.851-35.244 32.041-22.608 72.077-10.586 89.527 10.015 17.43 203.783 354.697 255.171 445.576 12.747 22.542 34.236 35.466 58.955 35.466h0.023c24.43-0.010 47.465-12.856 58.686-32.728 34.732-61.503 102.095-179.604 102.769-180.791 4.763-8.346 1.856-18.971-6.489-23.735-4.008-2.284-8.759-2.884-13.212-1.669-4.449 1.219-8.233 4.156-10.519 8.164-0.676 1.183-68.073 119.348-102.849 180.924-4.997 8.85-16.672 15.031-28.396 15.035h-0.010c-8.491 0-20.351-3.088-28.667-17.795-52.549-92.925-253.656-442.939-255.68-446.459l-0.935-1.455c-2.728-3.968-15.714-25.352 5.145-44.311 20.67-18.796 43.066-1.983 46.646 0.944 9.16 9.333 91.002 88.253 237.665 88.253h0.653c135.589-0.221 223.26-81.422 232.448-90.31 4.285-3.374 22.983-16.060 42.756 0.495 16.725 14.007 11.526 33.036 10.16 37.102l-108.91 190.73c-4.63 8.329-1.696 18.831 6.577 23.556 8.277 4.729 18.811 1.918 23.635-6.302l110.158-192.923 0.426-1.029c6.494-15.763 10.73-52.314-19.702-77.812-14.434-12.090-29.342-16.408-42.932-16.408v0z" />
<glyph unicode="&#xe91f;" glyph-name="id-card" horiz-adv-x="724" d="M631.34 560.599c0 10.785 7.235 19.89 17.111 22.74-2.067 17.666-9.504 30.523-28.946 30.523h-514.964c-28.693 0-29.587-19.207-29.587-42.927v-257.444c0-23.701-0.101-42.908 23.668-42.908h514.964c19.493 0 30.903 12.95 34.372 30.67-9.639 3.009-16.618 11.971-16.618 22.583 0 11.023 7.539 20.326 17.753 22.926v13.359c-10.213 2.605-17.753 11.869-17.753 22.925 0 11.023 7.539 20.286 17.753 22.925v13.321c-10.213 2.638-17.753 11.905-17.753 22.918 0 11.033 7.539 20.308 17.753 22.936v13.328c-10.213 2.631-17.753 11.894-17.753 22.927 0 11.031 7.539 20.305 17.753 22.932v13.328c-10.215 2.632-17.753 11.896-17.753 22.936v0zM234.761 542.838c29.416 0 53.274-23.83 53.274-53.274 0-29.384-23.858-53.271-53.274-53.271s-53.26 23.888-53.26 53.271c0.001 29.444 23.843 53.274 53.26 53.274v0zM128.228 329.755c0 0 5.866 53.188 19.191 63.23 13.322 10.009 51.72 16.67 51.72 16.67s24.854-30.026 35.452-30.026c10.55 0 35.453 30.026 35.453 30.026s38.364-6.661 51.671-16.67c15.69-11.835 19.594-63.23 19.594-63.23h-213.081zM572.147 329.755h-171.643v28.739h171.642v-28.739zM572.147 387.27h-171.643v28.743h171.642v-28.743zM572.147 444.745h-171.643v28.757h171.642v-28.757zM572.147 502.244h-171.643v28.75h171.642v-28.75z" />
<glyph unicode="&#xe920;" glyph-name="info" horiz-adv-x="724" d="M639.647 447.735c-0.112-153.28-124.424-277.568-277.61-277.524-153.157 0.012-277.666 124.412-277.555 277.579 0.137 153.434 123.857 277.709 277.751 277.584 153.697-0.153 277.524-124.51 277.414-277.639v0zM408.796 632.759h-93.684c4.442-87.452 8.924-174.628 13.366-261.886h66.949c4.457 87.313 8.9 174.49 13.368 261.886v0zM360.384 246.1c27.815 0.056 46.925 18.905 47.091 46.385 0.167 27.744-19.083 47.243-46.548 47.204-27.356-0.043-47.133-19.904-47.065-47.288 0.057-27.272 19.252-46.369 46.523-46.301v0z" />
<glyph unicode="&#xe921;" glyph-name="location" horiz-adv-x="724" d="M554.196 747.217c-51.75 47.099-120.467 73.041-193.488 73.041-73.018 0-141.734-25.941-193.485-73.041-52.149-47.464-80.865-110.676-80.865-178.003 0-57.523 44.724-143.288 132.925-254.913 64.617-81.777 130.136-148.423 130.791-149.083l10.638-10.79 10.634 10.79c0.656 0.66 66.179 67.306 130.791 149.083 88.202 111.625 132.925 197.395 132.925 254.913 0 67.328-28.716 130.544-80.865 178.003v0zM360.708 470.997c-52.245 0-94.754 42.519-94.754 94.781 0 52.264 42.509 94.782 94.754 94.782 52.249 0 94.758-42.519 94.758-94.782s-42.509-94.781-94.758-94.781v0zM522.244 225.178l-23.746-23.367c15.551-9.883 24.749-20.934 24.749-31.562 0-30.132-70.551-63.804-164.976-63.804s-164.977 33.672-164.977 63.804c0 11.602 10.69 23.723 29.025 34.285l-21.508 24.982c-25.139-16.102-39.911-36.484-39.911-59.233 0-54.829 84.838-96.208 197.371-96.208 112.537 0 197.37 41.345 197.37 96.208-0.034 20.709-12.212 39.534-33.397 54.895v0z" />
<glyph unicode="&#xe922;" glyph-name="luggage" horiz-adv-x="1727" d="M649.495 563.035c-56.652 0-131.784-20.078-131.784-20.078l18.824-160.66 56.478-40.172v-140.587c0 0 28.069-20.075 56.483-20.075 28.064 0 56.472 20.075 56.472 20.075v140.586l56.478 40.177 18.829 160.655c0.001 0.001-75.476 20.078-131.779 20.078v0zM649.495 583.11c51.991 0 94.126 44.955 94.126 100.427 0 55.448-42.135 100.407-94.126 100.407-51.996 0-94.131-44.96-94.131-100.407 0-55.471 42.136-100.427 94.131-100.427v0zM1226.626 451.501l-40.226 102.608c-7.548 19.538-23.95 36.23-54.858 36.23h-56.772c0 0-18.462 42.972-27.944 42.972h-40.937c-9.438 0-27.919-42.972-27.919-42.972h-57.434c-30.913 0-47.286-16.692-54.863-36.23l-40.226-102.608c-15.957-2.036-44.172-20.54-44.172-55.621v-130.532h45.255v-32.528c0-51.355 61.206-50.767 61.206 0v32.528h276.605v-32.528c0-50.767 61.182-51.355 61.182 0v32.528h45.226v130.532c0.049 35.076-28.19 53.586-44.123 55.621v0zM897.344 533.296c3.777 11.348 9.434 19.54 22.746 19.685h211.912c13.215-0.145 18.901-8.336 22.701-19.685l30.299-79.398h-317.933l30.275 79.398zM879.718 344.377c-19.119 0-34.66 15.836-34.66 35.372s15.541 35.371 34.66 35.371c19.192 0 34.714-15.836 34.714-35.371s-15.522-35.372-34.714-35.372v0zM1172.353 344.377c-19.192 0-34.708 15.836-34.708 35.372s15.517 35.371 34.708 35.371c19.172 0 34.713-15.836 34.713-35.371s-15.54-35.372-34.713-35.372v0z" />
<glyph unicode="&#xe923;" glyph-name="microphone" horiz-adv-x="724" d="M585.257 495.463v-240.615c0 0-1.751-28.496-16.622-45.699-16.256-18.831-45.753-26.489-45.753-26.489h-162.2v48.123h174.666v24.065h-99.798v192.489h99.804v54.139h-0.154c-3.296 90.234-80.149 162.418-174.516 162.418-94.387 0-171.223-72.184-174.51-162.418h-0.159v-54.139h99.807v-192.489h-81.099v0.152c-38.162 1.585-68.616 31.837-68.616 69.018v183.474h0.361c6.466 113.994 104.373 204.524 224.215 204.524 113.43 0 207.127-81.13 222.32-186.476h2.255v-30.077z" />
<glyph unicode="&#xe924;" glyph-name="my" horiz-adv-x="724" d="M442.083 402.57h-126.932c-118.83 0-215.508-68.016-215.508-185.935v-12.554c0-62.95 95.101-62.95 215.508-62.95h126.932c115.62 0 215.494 0 215.507 62.919v12.556c0 117.892-96.694 185.935-215.507 185.935v0.029zM620.36 202.849c0-3.012-4.561-13.249-63.090-18.259-37.226-3.193-81.624-3.193-114.044-3.193h-129.249c-39.053 0-83.382 0-118.952 3.193-52.504 4.703-58.169 14.342-58.169 18.259v12.822c0 96.564 79.51 147.225 177.151 147.225h129.248c97.642 0 177.147-50.661 177.147-147.225v-12.822h-0.043zM372.269 754.87c-93.641-0.671-169.070-77.007-168.624-170.647 0.449-93.641 76.607-169.255 170.249-169.026 93.641 0.226 169.435 76.204 169.428 169.849-0.429 94.090-76.958 170.069-171.053 169.824v0zM372.269 455.446c-71.652 0.854-129.125 59.479-128.56 131.135 0.567 71.654 58.964 129.362 130.621 129.081s129.595-58.446 129.602-130.101c-0.505-72.254-59.405-130.46-131.662-130.115v0z" />
<glyph unicode="&#xe925;" glyph-name="next" horiz-adv-x="724" d="M259.223 693.945l255.727-263.745-31.881-32.943h-0.124l-223.722-230.611-31.881 32.819 223.785 230.735-223.785 230.737z" />
<glyph unicode="&#xe926;" glyph-name="order-fill" horiz-adv-x="724" d="M120.64 660.892c-3.757 32.735 21.468 67.688 56.325 65.185 122.375 0.673 244.751 0.384 367.029 0.19 35.819 3.37 62.683-31.774 58.543-65.663-1.64-163.971 4.042-328.228-2.985-492.009-38.322 4.045-66.148 34.181-96.671 54.595-26.092-14.733-45.253-42.27-73.561-51.801-24.841 14.154-45.058 34.755-67.397 52.186-22.917-18.293-44.193-38.996-69.421-54.303-27.153 10.781-46.601 34.372-68.938 52.377-32.544-10.59-72.212-70.673-101.674-41.303-3.276 160.022-0.772 320.429-1.25 480.547zM207.774 580.111c-1.155-6.645-3.37-20.027-4.523-26.769 104.561-3.176 209.223-1.443 313.88-0.867 2.889 10.689 4.913 30.717-12.42 28.789-98.884 0.771-198.15 2.793-296.937-1.153zM205.462 485.656l-0.384-27.632c103.892-2.888 207.971-1.154 311.863-0.867 2.309 10.015 5.678 31.483-11.651 28.887-99.847 1.539-199.884 1.636-299.828-0.388zM205.175 390.336c0-6.836 0.097-20.604 0.195-27.441 73.75-1.827 147.602-2.985 221.259 0.579 0.19 6.451 0.384 19.448 0.482 25.898-73.852 4.334-147.992 2.795-221.935 0.965v0z" />
<glyph unicode="&#xe927;" glyph-name="order-no" horiz-adv-x="724" d="M539.632 780.942h-410.606c-31.881 0-57.83-25.944-57.83-57.83v-466.669c0-31.888 25.949-57.83 57.83-57.83h410.606c31.881 0 57.83 25.944 57.83 57.83v466.669c0 31.888-25.949 57.83-57.83 57.83zM170.572 666.735h1.123c0.225 0.009 0.444 0.034 0.67 0.034h137.090c-0.004-0.011-0.009-0.023-0.012-0.034h192.154c10.153 0 18.378-8.228 18.378-18.376s-8.227-18.382-18.378-18.382h-331.025c-10.151 0-18.378 8.233-18.378 18.382s8.227 18.376 18.378 18.376zM514.576 329.277c-0.939-9.27-8.766-16.502-18.285-16.502h-331.025c-10.151 0-18.377 8.228-18.377 18.38 0 10.144 8.227 18.371 18.377 18.371h212.221c0.005 0.006 0.009 0.012 0.012 0.018h118.796c10.151 0 18.377-8.233 18.377-18.381 0-0.637-0.034-1.266-0.096-1.886zM501.597 464.87h-331.025c-10.151 0-18.378 8.227-18.378 18.378 0 3.181 0.81 6.172 2.232 8.781 3.11 5.732 9.182 9.627 16.165 9.627h331.025c10.153 0 18.378-8.23 18.378-18.372 0-3.182-0.809-6.173-2.231-8.783-3.109-5.736-9.182-9.631-16.166-9.631z" />
<glyph unicode="&#xe928;" glyph-name="order-stroke" horiz-adv-x="724" d="M553.469 100.994h-384.736c-63.643 0-115.416 51.775-115.416 115.421v461.681c0 63.652 51.772 115.423 115.416 115.423h19.241c10.633 0 19.234-8.61 19.234-19.236s-8.607-19.234-19.234-19.234h-19.241c-42.43 0-76.945-34.52-76.945-76.954v-461.678c0-42.43 34.506-76.945 76.945-76.945h384.736c42.429 0 76.944 34.503 76.944 76.945v461.678c0 42.433-34.501 76.954-76.944 76.954h-19.238c-10.635 0-19.235 8.608-19.235 19.237 0 10.622 8.609 19.234 19.235 19.234h19.238c63.639 0 115.418-51.772 115.418-115.416v-461.679c0-63.656-51.78-115.432-115.418-115.432v0zM452.47 755.041h-182.746c-10.634 0-19.237 8.613-19.237 19.235s8.603 19.24 19.237 19.24h182.746c10.635 0 19.242-8.61 19.242-19.24 0.002-10.623-8.607-19.235-19.242-19.235v0zM555.87 553.859h-389.538c-10.638 0-19.236 8.61-19.236 19.234 0 10.622 8.602 19.237 19.236 19.237h389.538c10.634 0 19.238-8.611 19.238-19.237 0-10.623-8.604-19.234-19.238-19.234v0zM555.87 428.018h-389.538c-10.638 0-19.236 8.611-19.236 19.234s8.602 19.237 19.236 19.237h389.538c10.634 0 19.238-8.611 19.238-19.237 0-10.621-8.604-19.234-19.238-19.234v0zM555.87 302.172h-389.538c-10.638 0-19.236 8.607-19.236 19.242 0 10.633 8.602 19.232 19.236 19.232h389.538c10.634 0 19.238-8.605 19.238-19.232 0-10.635-8.604-19.242-19.238-19.242v0z" />
<glyph unicode="&#xe929;" glyph-name="order-time" horiz-adv-x="724" d="M464.474 517.29c-115.346 0-208.869-93.505-208.869-208.859 0-115.346 93.522-208.865 208.869-208.865 115.337 0 208.859 93.518 208.859 208.865 0 115.354-93.522 208.859-208.859 208.859zM579.142 230.055h-124.115c-16.237 0-29.393 13.157-29.393 29.392v173.624c0 16.238 13.157 29.397 29.393 29.397 16.24 0 29.398-13.16 29.398-29.397v-144.229h94.718c16.237 0 29.396-13.158 29.396-29.395-0.001-16.235-13.16-29.392-29.397-29.392zM226.736 309.033c0 130.292 105.622 235.914 235.914 235.914 49.354 0 95.162-15.166 133.036-41.077v219.242c0 31.888-25.944 57.83-57.833 57.83h-410.601c-1.491 0-2.963-0.075-4.426-0.186-22.977-1.749-42.253-16.971-49.888-37.78-2.275-6.197-3.516-12.888-3.516-19.864v-466.669c0-31.888 25.949-57.83 57.83-57.83v0h126.884c-17.482 32.946-27.4 70.522-27.4 110.419zM154.425 657.142c3.116 5.714 9.177 9.593 16.145 9.593h331.025c10.153 0 18.378-8.228 18.378-18.376s-8.227-18.382-18.378-18.382l-331.006 0.034c-10.151 0-18.377 8.233-18.377 18.382 0 3.167 0.802 6.148 2.212 8.749zM154.425 492.029c3.116 5.714 9.177 9.593 16.147 9.593h54.923c10.153 0 18.378-8.228 18.378-18.372 0-3.167-0.802-6.147-2.211-8.748-3.116-5.718-9.177-9.598-16.148-9.598h-54.923c-10.151 0-18.377 8.228-18.377 18.38-0.001 3.166 0.8 6.145 2.211 8.745zM192.863 326.837c-3.116-5.713-9.175-9.591-16.14-9.591h-1.901c-10.151 0-18.377 8.227-18.377 18.371 0 3.167 0.803 6.15 2.215 8.751 3.116 5.714 9.176 9.594 16.144 9.594h1.901c10.145 0 18.371-8.233 18.371-18.378 0.001-3.167-0.8-6.146-2.212-8.748z" />
<glyph unicode="&#xe92a;" glyph-name="paper-plane" horiz-adv-x="724" d="M534.023 287.786l-219.617 67.505 219.617 252.92-287.122-252.92-168.312 67.505 540.042 287.124-84.608-422.134zM314.405 186.080v118.809l67.505-34.204-67.505-84.605z" />
<glyph unicode="&#xe92b;" glyph-name="peer" horiz-adv-x="724" d="M360.37 739.394c-160.813 0-291.13-130.317-291.13-291.13 0-161.741 130.317-292.057 291.13-292.057 161.741 0 292.057 130.316 292.057 292.057 0 160.813-130.316 291.13-292.057 291.13v0zM434.309 292.991h-292.979c0 42.514-2.773 65.62 38.815 76.713 41.591 10.163 81.335 19.407 61.924 57.299-58.226 112.758-16.635 176.529 45.287 176.529 61 0 103.515-61.925 45.288-176.529-19.41-37.892 20.333-47.136 61.924-57.299 43.439-11.093 39.742-34.199 39.742-76.713v0zM466.658 292.991c0 130.317-61.924 68.392-61.924 182.998 0 41.591 25.876 63.774 58.228 63.774 48.058 0 82.254-48.984 36.043-140.484-14.785-29.573 15.711-36.969 48.982-45.288s30.501-26.801 30.501-60.998h-111.831z" />
<glyph unicode="&#xe92c;" glyph-name="person-1" horiz-adv-x="724" d="M457.429 599.571c0-80.44-65.211-145.651-145.651-145.651-80.442 0-145.653 65.211-145.653 145.651-1.031 52.716 26.502 101.876 71.991 128.535 45.49 26.662 101.832 26.662 147.321 0 45.49-26.659 73.024-75.818 71.992-128.535v0zM540.929 217.4c-2.789-67.954-102.589-71.222-229.177-71.222-126.619 0-229.152 3.268-229.152 71.194 0 99.016 81.465 219.438 229.181 220.723 135.462-1.284 229.149-119.669 229.149-218.711v-1.984zM640.587 508.676c0.010-5.543-2.188-10.859-6.103-14.778-3.917-3.921-9.231-6.125-14.772-6.125h-109.928c-11.549 0-20.916 9.355-20.933 20.905v3.404c0.017 11.549 9.384 20.904 20.933 20.904h109.928c11.555 0 20.874-9.349 20.874-20.904v-3.406zM640.587 418.255c0.010-5.545-2.188-10.859-6.103-14.781-3.917-3.923-9.231-6.122-14.772-6.122h-79.65c-11.549 0-20.913 9.351-20.929 20.904v3.375c0 11.559 9.37 20.929 20.929 20.929h79.65c11.555 0 20.874-9.349 20.874-20.929v-3.376zM640.587 327.832c0.010-5.542-2.188-10.859-6.103-14.777-3.917-3.923-9.231-6.125-14.772-6.125h-49.118c-11.549 0-20.916 9.353-20.931 20.904v3.404c0.016 11.549 9.383 20.905 20.931 20.905h49.118c11.555 0 20.874-9.378 20.874-20.905v-3.406z" />
<glyph unicode="&#xe92d;" glyph-name="person-2" horiz-adv-x="724" d="M361.392 430.82c103.897 0 188.098 76.575 188.098 171.001s-84.2 171.001-188.098 171.001c-103.9 0-188.101-76.575-188.101-171.001-0.001-94.426 84.2-171.001 188.101-171.001v0zM463.374 396.622h-203.933c-123.122 0-222.933-99.797-222.952-222.918 0-28.007 22.674-50.681 50.685-50.681h548.466c27.975 0 50.65 22.674 50.65 50.681-0.001 123.121-99.796 222.918-222.916 222.918v0z" />
<glyph unicode="&#xe92e;" glyph-name="phone" horiz-adv-x="724" d="M361.714 756.981c-171.015 0-309.648-138.636-309.648-309.651 0-171.002 138.634-309.639 309.648-309.639 171.017 0 309.639 138.634 309.639 309.639 0 171.013-138.623 309.651-309.639 309.651v0zM482.205 304.964c-21.823-21.835-103.197-1.14-183.592 79.25-80.399 80.41-101.061 161.774-79.26 183.595 18.937 18.914 41.999 51.974 76.566 8.94 34.591-43.053 17.572-55.078-1.922-74.599-13.668-13.641 14.816-48.148 44.607-77.931 29.812-29.775 64.289-58.236 77.959-44.634 19.522 19.524 31.555 36.527 74.582 1.938 43.025-34.605 9.987-57.641-8.937-76.557h-0.002z" />
<glyph unicode="&#xe92f;" glyph-name="plane-1" horiz-adv-x="724" d="M572.319 506.457l-107.979-39.845-136.14 71.226c-16.137 7.106-16.67 8.466-28.031 4.257l-48.424-17.917c-15.052-5.437-7.896-10.55 15.116-34.973l68.137-70.32-171.326-63.201c17.058-2.555 120.782-10.261 144.33-1.602l282.834 104.356c13.596 4.97 20.393 19.809 15.278 33.079-5.082 13.272-20.263 19.973-33.794 14.94v0zM248.508 397.539l-57.583 29.229c-17.058 8.901-23.678 8.836-49.167-0.584l-26.282-9.726 49.78-49.685 83.252 30.765z" />
<glyph unicode="&#xe930;" glyph-name="plane-2" horiz-adv-x="724" d="M663.867 416.035l-152.648 53.526-80.431 200.92c-10.767 22.366-10.097 24.358-26.163 29.959l-68.505 23.971c-21.184 7.572-18.203-4.486-16.044-52.053l8.292-138.685-242.213 84.958c15.956-18.17 120.178-120.116 153.439-131.824l399.838-140.22c19.189-6.78 40.159 3.38 46.937 22.569 6.78 19.186-3.324 40.221-22.502 46.879v0zM215.842 588.16l-34.857 84.023c-10.103 25.141-17.258 31.037-53.315 43.651l-37.18 12.997 7.586-99.441 117.766-41.231zM670.836 192.173c0-13.81-11.195-25.006-25.005-25.006h-533.441c-13.81 0-25.005 11.196-25.005 25.006v0c0 13.811 11.195 25.006 25.005 25.006h533.441c13.81 0 25.005-11.194 25.005-25.006v0z" />
<glyph unicode="&#xe931;" glyph-name="plane-3" horiz-adv-x="724" d="M647.624 655.469l-145.508-65.013-193.583 89.388c-22.847 8.723-23.716 10.604-39.008 3.738l-65.267-29.211c-20.29-8.919-9.994-15.534 23.75-48.125l99.813-93.668-230.901-103.136c23.722-2.206 167.339-4.638 199.075 9.496l381.15 170.275c18.324 8.136 26.46 29.603 18.321 47.929-8.132 18.325-29.605 26.544-47.841 18.327v0zM210.383 475.413l-81.829 36.556c-24.251 11.158-33.363 10.534-67.713-4.841l-35.414-15.863 72.743-66.052 112.213 50.2zM617.643 207.37c0-13.606-11.030-24.636-24.636-24.636h-525.562c-13.607 0-24.635 11.031-24.635 24.636v0c0 13.607 11.028 24.638 24.635 24.638h525.562c13.606 0 24.636-11.031 24.636-24.638v0z" />
<glyph unicode="&#xe932;" glyph-name="return" horiz-adv-x="724" d="M491.33 713.404l-274.602-283.209 34.234-35.374h0.133l240.235-247.634 34.234 35.241-240.304 247.766 240.304 247.765z" />
<glyph unicode="&#xe933;" glyph-name="route" horiz-adv-x="724" d="M361.486 724.169c-152.647 0-276.345-123.698-276.345-276.345 0-152.649 123.698-276.345 276.345-276.345 152.649 0 276.345 123.695 276.345 276.345 0 152.647-123.695 276.345-276.345 276.345v0zM492.205 288.157l-42.989 74.571h35.969v153.524c0 32.46-26.319 59.655-58.777 59.655-31.584 0-58.778-26.319-58.778-59.655v-130.715c0-40.358-32.46-73.695-72.814-73.695-39.479 0-72.816 33.337-72.816 73.695v145.628h-35.97l42.989 74.57 43.864-74.57h-35.969v-145.626c0-32.462 26.319-59.659 58.777-59.659 31.584 0 58.779 26.321 58.779 59.659v131.593c0.875 40.355 33.338 72.813 72.813 72.813 39.479 0 72.817-33.337 72.817-73.691v-153.525h35.969c0 0.877-43.864-74.571-43.864-74.571v0z" />
<glyph unicode="&#xe934;" glyph-name="sand-clock" horiz-adv-x="724" d="M641.48 105.313h-62.274v155.688c0 105.334-80.21 186.822-189.659 186.822 109.449 0 189.659 81.488 189.659 186.828v155.688h62.274c15.632 0 31.14 16.097 31.14 31.134 0 15.043-12.672 31.14-28.304 31.14h-566.144c-15.632 0-28.304-16.097-28.304-31.14 0-15.037 15.508-31.134 31.14-31.134h62.274v-155.688c0-105.34 80.21-186.828 189.658-186.828-109.449 0-189.658-81.488-189.658-186.822v-155.688h-62.274c-15.632 0-31.14-16.103-31.14-31.141s15.508-31.14 31.14-31.14h563.308c15.632 0 28.304 16.102 28.304 31.14s-15.508 31.141-31.14 31.141v0z" />
<glyph unicode="&#xe935;" glyph-name="search" d="M621.664 306.336c-44.48-31.68-98.88-50.336-157.664-50.336-150.208 0-272 121.792-272 272s121.792 272 272 272c150.208 0 272-121.792 272-272 0-75.104-30.432-143.104-79.68-192.32l191.904-191.904c8.8-8.8 8.576-22.912-0.256-31.744-8.896-8.896-23.040-8.96-31.744-0.256l-194.592 194.592zM464 288c132.544 0 240 107.456 240 240s-107.456 240-240 240c-132.544 0-240-107.456-240-240s107.456-240 240-240v0z" />
<glyph unicode="&#xe936;" glyph-name="stamp" horiz-adv-x="724" d="M652.45 285.447h-85.122l-167.538 203.694c80.139 15.375 132.521 92.806 117.008 172.945-15.375 80.144-92.811 132.526-172.948 117.008-79.997-15.375-132.378-92.806-117.003-172.95 11.383-59.214 57.789-105.613 117.003-117.002l-167.537-203.696h-84.98c-32.023 0-58.074-26.046-58.074-58.074v-102.914c0-32.028 26.051-58.074 58.074-58.074h561.118c32.028 0 58.074 26.046 58.074 58.074v102.914c0 32.028-26.046 58.074-58.074 58.074v0z" />
<glyph unicode="&#xe937;" glyph-name="star" horiz-adv-x="724" d="M684.419 507.192c-2.711 8.142-10.122 13.986-18.786 14.612l-198.401 15.34-75.457 194.229c-3.234 8.247-11.169 13.777-20.041 13.777s-16.907-5.426-20.036-13.777l-75.459-194.123-198.403-15.341c-8.661-0.625-15.967-6.472-18.786-14.612-2.711-8.141-0.313-17.223 6.159-22.962l152.69-135.677-47.698-204.457c-1.98-8.558 1.461-17.536 8.665-22.543 7.199-5.009 16.802-5.219 24.107-0.418l168.867 110.003 168.867-110.003c3.548-2.298 7.619-3.442 11.793-3.442 4.384 0 8.661 1.356 12.42 3.861 7.203 5.008 10.645 13.985 8.664 22.543l-48.011 204.245 152.69 135.681c6.471 5.844 8.873 14.818 6.158 23.065v0z" />
<glyph unicode="&#xe938;" glyph-name="steer" horiz-adv-x="724" d="M361.266 728.48c154.81 0 281.074-126.262 281.074-281.070 0-154.811-126.264-281.072-281.074-281.072s-281.070 126.262-281.070 281.072c-0.001 154.808 126.26 281.070 281.070 281.070zM361.266 772.396c-178.962 0-324.987-146.024-324.987-324.986 0-178.964 144.927-324.99 324.987-324.99 178.966 0 324.989 144.926 324.989 324.99 0 178.962-146.024 324.986-324.989 324.986v0zM454.59 507.793c9.881 0 19.766-4.391 25.254-10.978 3.293-4.391 5.49-9.883 4.391-14.273l-16.471-90.030c-2.194-10.977-15.369-19.761-29.641-19.761h-152.614c-14.273 0-27.448 8.784-29.645 19.761l-16.469 90.030c-1.096 5.492 0 9.883 4.391 14.273 5.492 6.588 15.373 10.978 25.253 10.978h185.552zM454.59 540.732h-186.647c-38.429 0-68.073-30.742-62.583-64.777l16.469-90.030c5.488-26.353 31.839-46.114 62.583-46.114h152.614c30.737 0 57.091 19.761 62.582 46.114l16.468 90.030c6.589 34.035-23.056 64.777-61.486 64.777v0zM505.095 496.814h167.987v-32.939h-167.987v32.939zM59.334 496.814h169.083v-32.939h-169.083v32.939zM487.529 408.981h181.162v-32.939h-181.162v32.939zM54.943 408.981h181.16v-32.939h-181.16v32.939zM283.313 355.621l30.501-12.442-70.489-172.835-30.488 12.439 70.475 172.838zM442.954 355.941l69.095-172.215-30.568-12.262-69.105 172.21 30.578 12.266z" />
<glyph unicode="&#xe939;" glyph-name="taxi" horiz-adv-x="724" d="M384.824 709.737c2.41-3.625 6.030-9.666 10.944-19.41 5.625-11.16 9.842-21.062 9.881-21.15l7.854-18.537h97.277c23.585 0 38.254-9.637 46.157-30.329l0.044-0.116 61.145-158.069 17.954-2.304c7.378-0.946 33.451-14.359 33.436-46.323v-149.227h-61.436v-75.121c0-7.142-2.146-12.211-6.755-15.954-4.969-4.028-12.443-6.337-20.507-6.337-8.171 0-15.789 2.365-20.901 6.479-4.689 3.779-6.87 8.806-6.87 15.812v75.121h-371.15v-75.121c0-7.011-2.184-12.033-6.871-15.812-5.111-4.12-12.729-6.479-20.9-6.479-8.067 0-15.538 2.309-20.502 6.343-4.613 3.74-6.765 8.806-6.765 15.948v75.121h-61.437v149.226c0 31.965 26.080 45.377 33.459 46.323l17.955 2.299 61.216 158.212c7.882 20.674 22.527 30.307 46.085 30.307l98.164 0.010 7.866 18.512c0.039 0.102 4.257 10.004 9.884 21.158 4.919 9.746 8.542 15.793 10.953 19.418h33.821zM395.732 740.137h-55.63c-12.87 0-37.921-59.099-37.921-59.099h-78.039c-41.962 0-64.237-22.987-74.491-49.874l-54.634-141.189c-21.665-2.774-59.996-28.248-59.996-76.477v-179.627h61.443v-44.72c0-35.228 28.788-52.691 57.663-52.691 29.043 0 58.171 17.667 58.171 52.691v44.72h310.35v-44.72c0-35.020 29.131-52.691 58.17-52.691 28.875 0 57.665 17.459 57.665 52.691v44.72h61.431v179.627c0.022 48.229-38.326 73.702-59.97 76.477l-54.609 141.191c-10.272 26.885-32.535 49.874-74.554 49.874h-77.143c0-0.001-25.050 59.098-37.908 59.098v0zM502.996 595.912c0.484-1.011 1.137-2.571 1.904-4.892l0.196-0.598 0.225-0.595 23.654-62.816h-323.008l23.869 63.416 0.198 0.601c0.766 2.317 1.415 3.878 1.901 4.885h271.062zM504.455 626.312h-273.921c-17.15-0.179-24.478-10.915-29.374-25.775l-39.123-103.928h410.866l-39.136 103.928c-4.899 14.86-12.246 25.596-29.313 25.775v0zM168.76 319.82c-34.375 0-62.342 28.64-62.342 63.842 0 35.223 27.967 63.879 62.342 63.879 34.362 0 62.319-28.656 62.319-63.879 0-35.201-27.956-63.842-62.319-63.842v0zM168.76 417.143c-17.615 0-31.943-15.021-31.943-33.48 0-18.438 14.328-33.441 31.943-33.441 17.599 0 31.918 15.003 31.918 33.441 0 18.459-14.32 33.48-31.918 33.48v0zM566.201 319.82c-34.366 0-62.319 28.64-62.319 63.842 0 35.223 27.953 63.879 62.319 63.879 34.375 0 62.342-28.656 62.342-63.879 0-35.201-27.967-63.842-62.342-63.842v0zM566.201 417.143c-17.604 0-31.921-15.021-31.921-33.48 0-18.438 14.317-33.441 31.921-33.441 17.613 0 31.944 15.003 31.944 33.441 0 18.459-14.331 33.48-31.944 33.48v0z" />
<glyph unicode="&#xe93a;" glyph-name="triangle" horiz-adv-x="724" d="M38.922 126.215h644.916v642.958l-644.916-642.958z" />
<glyph unicode="&#xe93b;" glyph-name="us" horiz-adv-x="724" d="M695.501 227.555c3.396-6.668 3.396-12.708 3.396-22.741v-25.427c0-9.339 0-16.007-3.396-25.395 0-6.698-3.395-12.704-6.777-16.041-3.395-3.367-6.744-6.715-16.299-6.715-9.465-3.333-19.652-3.333-32.527-6.698-12.903-3.367-25.794-3.367-42.050-6.698-16.3-3.319-29.173-3.319-45.478-3.319-16.269 0-29.161-3.379-45.417-3.379h-71.916c-12.907 0-29.148 3.379-42.052 3.379-16.286 0-29.177 3.319-45.447 3.319-12.89 0-29.177 3.331-39.348 6.698-12.89 3.366-23.060 3.366-29.177 6.698-9.479 3.349-12.873 3.349-16.269 6.715-3.396 3.335-6.791 12.707-9.496 25.428-3.379 16.007 0 35.426 3.396 57.521 3.396 12.692 6.761 22.738 16.286 28.732 9.479 6.727 19.665 12.721 32.557 16.083 12.89 3.319 23.060 6.657 35.952 9.344 12.89 2.688 23.061 6.698 32.586 12.721 6.761 6.652 12.878 9.327 16.273 12.706 3.396 3.335 6.774 9.342 9.492 12.707 3.396 3.333 3.396 9.34 3.396 12.692v16.038c0 9.389-3.396 16.087-9.492 19.422-6.777 3.333-9.512 9.369-16.286 12.721-3.383 3.35-6.779 6.698-6.779 9.356-3.395 3.349-3.395 9.356-6.791 12.704-3.396 6.698-3.396 9.356-6.791 16.057-3.379 0-6.774 3.35-6.774 3.35l-6.791 6.698c-3.379 3.331-3.379 9.355-6.774 12.703-3.396 6.685-3.396 12.723-3.396 16.041 0 6.698 0 9.356 3.396 12.721 3.396 3.349 3.396 9.356 6.774 12.721 0 12.704 0 28.761 3.396 41.466 3.396 12.721 3.396 25.429 6.791 38.809 3.488 12.619 8.981 24.588 16.271 35.459 6.791 9.374 12.89 19.389 23.077 25.431 9.496 6.68 16.269 12.721 25.766 16.039 9.512 3.347 19.664 6.698 25.781 6.698 9.508 0 16.299 3.347 25.794 3.347 23.061 0 42.069-3.347 58.321-12.704 14.143-8.116 27.346-17.772 39.363-28.793 9.496-12.707 16.286-25.414 19.636-38.777 3.442-13.37 6.791-28.779 9.542-38.797 3.363-12.721 3.363-28.775 3.363-41.482l6.791-6.682c0-3.349 3.396-6.698 3.396-9.372v-16.058c0-6.68-3.396-12.703-6.746-19.389-3.441-3.349-6.791-9.355-6.791-9.355-3.485-3.396-6.85-3.396-9.617-6.715-3.363-6.698-3.363-12.721-6.744-16.054-3.379-3.335-3.396-9.372-6.775-12.704-3.395-3.352-6.774-9.358-9.496-9.358-3.395-3.349-6.774-6.698-9.479-6.698-3.425-3.366-6.774-3.366-6.774-6.698-3.442-3.335-3.442-6.698-6.791-6.698 0-3.366-3.429-6.684-3.429-9.358v-16.071c0-6.667 0-12.721 3.429-16.041 3.362-6.698 6.791-9.339 12.904-16.053 6.761-6.698 12.873-9.344 23.047-12.704 9.479-3.367 19.679-6.702 29.161-9.36 9.492-3.362 23.044-6.698 32.54-9.369 9.512-2.661 19.695-9.342 25.781-16.057 23.729-8.681 27.113-15.409 30.508-24.764v0zM340.072 355.995c0-3.363-3.396-9.356-3.396-9.356 0-3.366-3.396-6.697-9.512-9.342-9.496-6.727-23.061-12.721-35.952-16.084-12.89-3.366-25.782-9.342-35.952-12.707-12.892-6.681-23.060-12.721-29.161-19.389-9.496-9.369-12.892-19.42-16.286-35.474v-32.126c-16.286 0-32.556 3.366-52.221 3.366-16.286 3.333-32.573 3.333-45.446 6.715-12.875 3.333-25.782 3.333-35.952 6.668-9.496 3.362-16.269 3.362-19.664 6.698-3.396 3.331-6.777 12.721-9.512 25.426-3.396 16.057 0 35.476 3.396 57.54 3.396 12.704 6.777 22.739 16.286 28.758 9.496 6.703 19.665 12.709 32.573 16.041 12.875 3.35 23.060 6.698 35.935 9.373 12.89 3.335 23.060 9.355 32.556 12.704 6.791 6.684 12.89 9.372 16.303 12.708 3.379 3.366 6.758 9.372 9.496 12.721 3.396 3.349 3.396 9.372 3.396 12.72v16.025c0 9.373-3.396 16.041-9.512 19.407l-25.765 25.395c-2.705 2.688-3.396 9.386-6.791 12.721-3.379 6.698-3.379 9.37-6.775 16.071-3.396 0-6.791 3.349-6.791 3.349l-6.777 6.682c-3.396 3.351-3.396 9.372-6.791 12.721-3.379 6.699-3.379 12.707-3.379 16.055 0 6.682 0 9.356 3.379 12.706 3.396 3.347 3.396 9.372 6.791 12.707 0 12.721 0 28.775 3.381 41.481 3.396 12.721 3.396 22.738 9.509 35.459 3.479 12.623 8.974 24.596 16.269 35.46 6.791 9.36 12.89 19.39 23.064 25.429 9.509 6.682 16.283 12.691 25.778 16.054 9.496 3.335 16.286 6.685 25.765 6.685 9.512 0 16.273 3.349 25.782 3.349 23.060 0 42.034-3.349 58.337-12.704 14.14-8.108 27.331-17.765 39.331-28.793 6.791-6.668 9.496-12.707 9.496-19.376 0-6.698 3.396-12.72 6.774-22.752-9.492-3.353-16.283-12.709-25.765-19.407-9.509-9.372-16.3-19.405-23.073-28.761-9.496-12.721-16.286-25.427-19.669-38.809-3.396-13.366-6.774-28.761-9.496-38.795-3.396-16.037-3.396-28.758-3.396-44.816-3.396-3.333-6.791-9.356-6.791-12.721-3.379-3.333-3.379-9.339-3.379-16.041 0-6.697 0-12.721 3.379-19.418 3.396-6.698 3.396-12.706 6.791-16.042 3.396-3.347 3.396-6.698 6.777-9.372 3.396-3.349 6.774-3.349 6.774-6.667 3.396-6.698 3.396-12.721 6.791-19.403 3.396-6.715 3.396-9.356 6.791-16.058 3.379-6.697 6.761-9.355 9.496-12.721 3.396-3.362 6.775-3.362 6.775-6.697l3.383-3.333c0 0 3.396-3.366 3.396-6.702-6.746 14.704-6.746 11.371-6.746 4.671v0z" />
<glyph unicode="&#xe93c;" glyph-name="wallet" horiz-adv-x="724" d="M685.585 194.023c0-8.641-1.512-16.676-4.495-24.163-2.934-7.355-7.288-14.062-12.817-19.731-5.522-5.666-12.118-10.172-19.403-13.26-7.389-3.166-15.478-4.758-24.251-4.763h-503.009c-8.779 0-17.092 1.582-24.938 4.763-7.699 3.088-14.75 7.586-20.799 13.26-5.967 5.595-10.794 12.293-14.21 19.731-3.463 7.497-5.192 15.548-5.192 24.163v339.616c0 17.253 6.119 31.888 18.353 43.912 12.24 12.022 27.144 18.028 44.699 18.028h503.009c17.557 0 32.455-6.006 44.684-18.028 12.241-12.022 18.364-26.659 18.364-43.912v-92.556h-157.276c-17.561 0-32.461-5.899-44.691-17.703-12.249-11.799-18.36-26.331-18.36-43.563 0.454-11.799 2.997-22.245 7.62-31.32 3.706-7.71 9.816-14.739 18.363-21.103 8.536-6.359 20.9-9.537 37.070-9.537h157.28v-123.834h0.001zM591.358 626.882h-314.549c24.954 12.702 48.511 24.957 70.682 36.762 19.4 9.983 38.563 19.973 57.499 29.943 14.745 7.788 29.527 15.509 44.345 23.154 16.17 8.625 30.608 12.596 43.297 11.915 12.7-0.68 23.435-2.838 32.213-6.468 10.162-4.997 18.95-11.576 26.343-19.74l40.17-75.566zM497.123 379.816c0 8.626 3.008 15.889 9.004 21.774 6.005 5.893 13.4 8.846 22.173 8.846 8.777 0 16.172-2.954 22.166-8.846 6.001-5.886 9.001-13.152 9.001-21.774s-3.001-15.998-9.001-22.126c-5.994-6.125-13.389-9.199-22.166-9.199-8.774 0-16.17 3.071-22.173 9.199-5.996 6.127-9.004 13.501-9.004 22.126v0z" />
<glyph unicode="&#xe93d;" glyph-name="wechat" horiz-adv-x="724" d="M461.738 538.855c6.534 0 13-0.483 19.418-1.194-17.448 81.239-104.304 141.6-203.446 141.6-110.838 0-201.632-75.55-201.632-171.484 0-55.377 30.207-100.853 80.685-136.122l-20.17-60.659 70.49 35.348c25.22-4.992 45.456-10.123 70.626-10.123 6.327 0 12.602 0.311 18.824 0.799-3.937 13.483-6.221 27.603-6.221 42.252 0 88.090 75.646 159.582 171.426 159.582v0zM353.324 593.523c15.182 0 25.238-9.987 25.238-25.163 0-15.111-10.056-25.238-25.238-25.238-15.113 0-30.279 10.127-30.279 25.238 0 15.176 15.166 25.163 30.279 25.163v0zM212.207 543.122c-15.109 0-30.362 10.127-30.362 25.238 0 15.176 15.253 25.163 30.362 25.163 15.113 0 25.17-9.987 25.17-25.163 0-15.111-10.058-25.238-25.17-25.238v0zM645.766 381.693c0 80.616-80.667 146.326-171.269 146.326-95.937 0-171.495-65.709-171.495-146.326 0-80.755 75.558-146.323 171.495-146.323 20.078 0 40.333 5.064 60.499 10.117l55.307-30.287-15.163 50.392c40.469 30.364 70.625 70.63 70.625 116.102v0zM418.893 406.925c-10.041 0-20.166 9.987-20.166 20.176 0 10.047 10.126 20.164 20.166 20.164 15.253 0 25.243-10.117 25.243-20.164 0-10.189-9.99-20.176-25.243-20.176v0zM529.803 406.925c-9.968 0-20.028 9.987-20.028 20.176 0 10.047 10.060 20.164 20.028 20.164 15.114 0 25.24-10.117 25.24-20.164 0-10.189-10.126-20.176-25.24-20.176v0z" />
</font>
</defs>
</svg>
